<svg width="88" height="90" viewBox="0 0 88 90" fill="none" xmlns="http://www.w3.org/2000/svg">
<path d="M68.7651 27.6027C65.2941 21.2523 59.977 16.2951 53.6273 13.4893C47.2775 10.6836 40.2446 10.1839 33.6046 12.0665C26.9646 13.9492 21.083 18.1107 16.8597 23.9143C12.6363 29.7179 10.3038 36.8441 10.2188 44.2027C10.1338 51.5614 12.301 58.7472 16.389 64.661C20.4771 70.5748 26.2607 74.891 32.8552 76.9491C39.4497 79.0073 46.4919 78.6942 52.9046 76.0577C59.3172 73.4212 64.7472 68.6064 68.3638 62.35L41.6449 44.6194L68.7651 27.6027Z" fill="#55A349"/>
<ellipse cx="77.9428" cy="45.796" rx="10.0571" ry="10.7755" fill="#FFB341"/>
</svg>
