<svg width="31" height="32" viewBox="0 0 31 32" fill="none" xmlns="http://www.w3.org/2000/svg">
<path d="M24.2241 9.72368C23.0014 7.48662 21.1283 5.74032 18.8914 4.75193C16.6546 3.76355 14.1771 3.5875 11.838 4.25072C9.4989 4.91394 7.42699 6.3799 5.93922 8.42436C4.45144 10.4688 3.62973 12.9792 3.59979 15.5714C3.56985 18.1637 4.33332 20.6951 5.77342 22.7783C7.21351 24.8616 9.25093 26.3821 11.574 27.1071C13.8971 27.8321 16.3778 27.7218 18.6368 26.7931C20.8958 25.8643 22.8087 24.1682 24.0827 21.9642L14.6704 15.7182L24.2241 9.72368Z" fill="white"/>
<ellipse cx="27.4572" cy="16.1327" rx="3.54286" ry="3.79592" fill="#FFB341"/>
</svg>
