<svg width="28" height="29" viewBox="0 0 28 29" fill="none" xmlns="http://www.w3.org/2000/svg">
<g id="Group 1">
<path id="Ellipse 1" d="M21.8798 8.78269C20.7754 6.76212 19.0836 5.18482 17.0632 4.29208C15.0428 3.39934 12.8051 3.24033 10.6924 3.83937C8.57965 4.4384 6.70825 5.7625 5.36445 7.60911C4.02066 9.45571 3.27847 11.7231 3.25142 14.0645C3.22438 16.4059 3.91397 18.6923 5.2147 20.574C6.51543 22.4557 8.35568 23.829 10.4539 24.4838C12.5522 25.1387 14.7929 25.0391 16.8333 24.2002C18.8737 23.3613 20.6014 21.8293 21.7521 19.8387L13.2507 14.1971L21.8798 8.78269Z" fill="#55A349"/>
<ellipse id="Ellipse 2" cx="24.8" cy="14.5715" rx="3.2" ry="3.42857" fill="#FFB341"/>
</g>
</svg>
